<?xml version="1.0" standalone="no"?><!DOCTYPE svg PUBLIC "-//W3C//DTD SVG 1.1//EN" "http://www.w3.org/Graphics/SVG/1.1/DTD/svg11.dtd"><svg t="1582114435973" class="icon" viewBox="0 0 1024 1024" version="1.1" xmlns="http://www.w3.org/2000/svg" p-id="2211" xmlns:xlink="http://www.w3.org/1999/xlink" width="200" height="200"><defs><style type="text/css"></style></defs><path d="M480.032 613.44V448a32 32 0 1 1 64 0v165.44a96.032 96.032 0 1 1-64 0z m218.4-244.928a32.064 32.064 0 0 1-4 5.888l-32 32a32 32 0 0 1-22.4 9.6 32 32 0 0 1-22.72-54.72l32-32 0.96-0.8a254.432 254.432 0 0 0-106.24-38.496V320a32 32 0 1 1-64 0v-30.016a254.432 254.432 0 0 0-106.464 38.656l0.864 0.96 32 32a32 32 0 0 1-22.4 54.4 32 32 0 0 1-22.72-9.28l-32-32a32 32 0 0 1-4.736-5.056A255.52 255.52 0 0 0 264.096 480h23.936a32 32 0 1 1 0 64h-32a260.8 260.8 0 0 0 17.6 96h46.4a32 32 0 0 1 0 64h-65.92a32 32 0 0 1-27.52-15.68A299.2 299.2 0 0 1 192.032 544c0-176.736 143.264-320 320-320s320 143.264 320 320a299.2 299.2 0 0 1-34.56 144.32 32 32 0 0 1-27.52 15.68h-65.92a32 32 0 0 1 0-64h46.4a260.8 260.8 0 0 0 17.6-96h-32a32 32 0 0 1 0-64h23.936a255.552 255.552 0 0 0-61.536-111.488zM512.032 672a32 32 0 1 0 0 64 32 32 0 0 0 0-64z" p-id="2212"></path></svg>