<?xml version="1.0" standalone="no"?><!DOCTYPE svg PUBLIC "-//W3C//DTD SVG 1.1//EN" "http://www.w3.org/Graphics/SVG/1.1/DTD/svg11.dtd"><svg t="1582289229808" class="icon" viewBox="0 0 1024 1024" version="1.1" xmlns="http://www.w3.org/2000/svg" p-id="4112" xmlns:xlink="http://www.w3.org/1999/xlink" width="200" height="200"><defs><style type="text/css"></style></defs><path d="M511.178827 734.116889c-116.309618 0-210.934881-94.625264-210.934882-210.933885s94.625264-210.932888 210.934882-210.932888c116.307625 0 210.930895 94.624267 210.930895 210.932888 0 11.007109-8.923283 19.931389-19.931389 19.931388s-19.931389-8.924279-19.931388-19.931388c0-94.328286-76.740829-171.070111-171.068118-171.070111-94.329282 0-171.072104 76.741825-171.072105 171.070111 0 94.329282 76.742822 171.071108 171.072105 171.071108 11.007109 0 19.931389 8.924279 19.931388 19.931388s-8.924279 19.931389-19.931388 19.931389z" p-id="4113"></path><path d="M533.473081 971.299416a19.929395 19.929395 0 0 1-19.834721-21.872706c0.832135-8.497748 0.742444-17.141991-0.265087-25.692557-3.612564-30.646503-18.544164-58.068107-42.042275-77.212206-23.315738-18.996606-52.298967-27.554148-81.61206-24.098045-39.997314 4.715767-74.26834 31.639086-89.440113 70.260138-2.175511 5.539929-6.712892 9.817205-12.370416 11.661855s-11.844228 1.066329-16.867934-2.124686c-55.06943-34.980583-102.75428-82.517942-137.901291-137.472766-5.742233-8.979091-3.405278-20.887099 5.305736-27.027959 34.208242-24.11997 52.329861-65.642035 47.293198-108.361977-6.547461-55.528848-50.307821-98.357416-104.05281-101.837436-10.764943-0.696602-19.021521-9.832154-18.629869-20.614039 2.709672-74.584252 24.196706-147.830112 62.138097-211.817842a19.931389 19.931389 0 0 1 30.95245-4.208513c24.006361 23.064603 56.302186 34.106592 88.601001 30.298701 60.751869-7.163341 104.131539-64.267766 96.701118-127.295799-2.220357-18.839148-8.614346-36.279113-19.002586-51.837556a19.934378 19.934378 0 0 1 8.561528-29.317079c56.906107-24.991968 117.516463-37.664345 180.148859-37.664345 2.534276 0 5.283811 0.027904 8.407059 0.085705a19.931389 19.931389 0 0 1 19.552693 20.525344 120.738372 120.738372 0 0 0-0.060791 3.611567c0 63.464531 49.767681 115.095796 110.941098 115.095797 37.122211 0 71.627431-19.152071 92.301264-51.233635a19.930392 19.930392 0 0 1 28.298585-5.450238c44.154005 31.373999 81.921993 70.022954 112.252584 114.875555a19.929395 19.929395 0 0 1-7.067671 28.718141c-36.987674 19.898502-59.964579 59.076636-59.964578 102.247026 0 63.464531 49.767681 115.095796 110.940101 115.095797 3.507924 0 7.096571-0.179382 10.666283-0.531172 10.948312-1.084268 20.711702 6.921175 21.793977 17.876462 1.081278 10.954291-6.922171 20.711702-17.876463 21.793977-4.866249 0.480346-9.773356 0.724506-14.5828 0.724506-83.152756 0-150.802879-69.514704-150.802879-154.958573 0-50.14538 23.296803-96.363281 62.007546-125.281732a408.631335 408.631335 0 0 0-74.88123-76.439865c-28.438105 33.151879-69.390133 52.427524-113.083722 52.427524-77.966609 0-142.303138-61.113624-150.026552-139.168927-45.732571 1.214818-90.195513 9.889955-132.587582 25.857987a159.532827 159.532827 0 0 1 13.656987 48.283789c10.00456 84.854897-49.040185 161.812978-131.62091 171.550457-35.810726 4.222465-71.535747-4.826386-101.165749-25.095611-24.809596 47.932996-39.932537 100.705334-44.302494 154.672558 63.703707 12.821862 113.385683 66.555889 121.379166 134.344534 5.966461 50.601809-12.463097 100.056567-48.697365 133.341986 26.564555 37.75304 59.71444 71.16004 97.266173 98.041504 23.756222-40.388966 64.575706-67.74679 111.156357-73.238884 40.119892-4.731712 79.704626 6.911209 111.457322 32.782151 31.571319 25.721457 51.619307 62.460985 56.451671 103.449886 0.420552 3.570708 0.721516 7.155368 0.900899 10.742022 46.927458-4.852297 92.152775-17.676152 134.712269-38.228403 9.912876-4.785526 21.828857-0.631825 26.61538 9.281051 4.78752 9.912876 0.631825 21.828857-9.281052 26.616376-53.80877 25.984551-111.480242 40.71883-171.412931 43.79524-0.343816 0.014949-0.684643 0.024914-1.02547 0.024915z" p-id="4114"></path><path d="M941.026128 646.319122h-340.338425c-11.008106 0-19.931389-8.924279-19.931389-19.931388s8.923283-19.931389 19.931389-19.931389h340.338425c11.008106 0 19.931389 8.924279 19.931388 19.931389s-8.923283 19.931389-19.931388 19.931388zM941.026128 736.840513h-340.338425c-11.008106 0-19.931389-8.923283-19.931389-19.931389s8.923283-19.931389 19.931389-19.931388h340.338425c11.008106 0 19.931389 8.923283 19.931388 19.931388s-8.923283 19.931389-19.931388 19.931389zM941.026128 827.3629h-340.338425c-11.008106 0-19.931389-8.924279-19.931389-19.931388s8.923283-19.931389 19.931389-19.931389h340.338425c11.008106 0 19.931389 8.924279 19.931388 19.931389s-8.923283 19.931389-19.931388 19.931388z" p-id="4115"></path></svg>