<?xml version="1.0" standalone="no"?><!DOCTYPE svg PUBLIC "-//W3C//DTD SVG 1.1//EN" "http://www.w3.org/Graphics/SVG/1.1/DTD/svg11.dtd"><svg t="1582289295698" class="icon" viewBox="0 0 1024 1024" version="1.1" xmlns="http://www.w3.org/2000/svg" p-id="4255" xmlns:xlink="http://www.w3.org/1999/xlink" width="200" height="200"><defs><style type="text/css"></style></defs><path d="M855.465051 239.018745c-15.517415-10.389628-37.722136-23.006993-54.635341-31.860638-18.802228-9.870812-36.884049-21.48329-55.405891-32.165584-36.919864-21.319561-73.514317-41.754986-109.678982-63.302745-18.092054-10.789741-36.990472-20.390399-54.895261-31.611975-16.45374-10.302647-42.900066-18.152429-69.40779-18.152429l-5.403057 0c-23.091928 0-53.094242 10.076496-67.26908 19.22383-17.717524 11.438517-36.685527 20.62883-54.683437 31.806403-35.603893 22.088064-73.28305 41.895179-109.772103 63.21474-17.555841 10.250458-38.541805 20.895913-54.790884 31.688723-17.144472 11.386328-37.199227 20.164249-54.694693 31.806403-28.455075 18.920932-62.057381 64.381309-62.057381 110.924345l0 321.102229c0 46.781466 33.612539 91.642187 62.275345 110.706381 33.471322 22.268166 73.890894 43.052538 109.267613 63.715137 36.499285 21.321608 74.182536 41.104163 109.772103 63.21474 17.978467 11.151991 36.792974 20.785396 54.887075 31.601742 15.873526 9.475815 41.765219 19.426445 67.065442 19.426445l11.891841 0c40.917922 0 92.491531-34.44551 120.449279-51.467185 36.024471-21.917172 72.576969-41.439808 109.103884-62.776765 34.938744-20.415982 75.771731-41.358967 108.628046-63.285349 27.912723-18.633383 62.914912-63.679321 62.914912-108.978017L919.026692 348.428597C919.029762 302.481126 883.7697 257.970376 855.465051 239.018745zM868.037391 654.168953c0 39.528272-30.544667 78.816067-54.886051 95.079472-28.667923 19.134803-64.289212 37.402865-94.764294 55.206346-31.868825 18.612916-63.755046 35.641755-95.200222 54.769394-24.381293 14.84101-69.363787 44.896536-105.07615 44.896536l-10.376325 0c-22.057365 0-44.647873-8.68787-58.497299-16.953114-15.781428-9.432837-32.203446-17.828041-47.889707-27.566846-31.051203-19.285229-63.915705-36.549427-95.766111-55.145971-30.853705-18.034748-66.132186-36.162618-95.317902-55.581899-25.004487-16.645099-54.336536-55.774281-54.336536-96.584756L155.926794 372.161115c0-40.609906 29.313629-80.273255 54.135968-96.777137 15.268752-10.150174 32.762171-17.815761 47.717791-27.739784 14.178931-9.417487 32.495088-18.709107 47.800679-27.65485 31.838126-18.59859 64.706721-35.879162 95.766111-55.146994 15.71082-9.749038 32.244378-17.770735 47.705512-27.747971 12.365632-7.978718 38.534642-16.770965 58.681494-16.770965l4.723581 0c23.127743 0 46.198182 6.844895 60.552098 15.844873 15.611559 9.775644 32.104185 18.161638 47.89073 27.569916 31.544437 18.804275 63.464427 36.630269 95.682199 55.221696 16.154935 9.329483 31.943526 19.459191 48.331775 28.060079 14.755052 7.731078 34.126238 18.729573 47.670719 27.79402 24.678052 16.537651 55.450916 55.373145 55.450916 95.452979L868.036367 654.168953 868.037391 654.168953zM325.192895 657.776108l1.099031-231.295853c0-8.541537 10.892071-12.611226 16.313547-17.945721l163.625638 148.761092 161.863505-147.163711c5.220908 5.334495 18.894326 10.957563 18.894326 19.288299l0 17.012466-1.534959 211.81415 52.622498-0.471744 1.364067-246.774383c0-32.249495-38.005592-58.520835-68.330248-58.520835L340.951811 352.479867c-30.322609 0-66.580394 24.734334-66.580394 56.985876l-1.364067 248.651127L325.192895 657.776108zM593.626577 405.40424l-82.72612 79.272461-84.576257-78.759785L593.626577 405.40424z" p-id="4256"></path></svg>