<?xml version="1.0" standalone="no"?><!DOCTYPE svg PUBLIC "-//W3C//DTD SVG 1.1//EN" "http://www.w3.org/Graphics/SVG/1.1/DTD/svg11.dtd"><svg t="1581926977625" class="icon" viewBox="0 0 1024 1024" version="1.1" xmlns="http://www.w3.org/2000/svg" p-id="7133" xmlns:xlink="http://www.w3.org/1999/xlink" width="200" height="200"><defs><style type="text/css"></style></defs><path d="M512 192c176.725333 0 320 143.274667 320 320 0 41.841778-8.049778 82.602667-23.495111 120.561778a21.333333 21.333333 0 1 1-39.509333-16.085334A276.48 276.48 0 0 0 789.333333 512c0-153.173333-124.16-277.333333-277.333333-277.333333S234.666667 358.826667 234.666667 512 358.826667 789.333333 512 789.333333a275.911111 275.911111 0 0 0 156.202667-48.142222 21.333333 21.333333 0 1 1 24.064 35.242667A318.577778 318.577778 0 0 1 512 832c-176.725333 0-320-143.274667-320-320S335.274667 192 512 192z" p-id="7134"></path><path d="M426.666667 426.666667m17.066666 0l136.533334 0q17.066667 0 17.066666 17.066666l0 136.533334q0 17.066667-17.066666 17.066666l-136.533334 0q-17.066667 0-17.066666-17.066666l0-136.533334q0-17.066667 17.066666-17.066666Z" p-id="7135"></path></svg>